<?xml version="1.0" standalone="no"?>
<!DOCTYPE svg PUBLIC "-//W3C//DTD SVG 20010904//EN"
 "http://www.w3.org/TR/2001/REC-SVG-20010904/DTD/svg10.dtd">
<svg version="1.0" xmlns="http://www.w3.org/2000/svg"
 width="1136.000000pt" height="1136.000000pt" viewBox="0 0 1136.000000 1136.000000"
 preserveAspectRatio="xMidYMid meet">
<metadata>
Created by potrace 1.11, written by Peter Selinger 2001-2013
</metadata>
<g transform="translate(0.000000,1136.000000) scale(0.100000,-0.100000)"
fill="#000000" stroke="none">
<path d="M5560 10908 c-85 -55 -222 -144 -305 -198 -82 -53 -356 -230 -607
-393 -252 -164 -662 -429 -910 -590 -249 -162 -622 -403 -828 -537 -206 -134
-442 -287 -525 -340 -82 -54 -262 -170 -400 -260 -137 -89 -316 -205 -397
-257 l-148 -95 0 -2557 1 -2556 317 -205 c304 -196 572 -370 1627 -1055 264
-171 732 -475 1040 -675 809 -525 1004 -651 1153 -748 74 -48 137 -86 142 -85
4 1 219 140 476 309 622 407 694 455 1144 749 212 139 457 299 545 357 88 58
502 329 920 602 418 274 840 550 937 614 l178 117 0 2566 0 2567 -407 269
c-225 148 -622 409 -883 582 -261 172 -563 371 -670 441 -107 71 -305 201
-440 290 -135 89 -454 299 -710 468 -429 283 -1011 666 -1070 705 -25 16 -28
15 -180 -85z m1783 -2602 c67 -28 107 -104 93 -179 -4 -19 -44 -85 -99 -158
-50 -68 -149 -201 -218 -294 -69 -94 -406 -548 -749 -1010 -343 -462 -660
-889 -705 -950 -340 -458 -1022 -1378 -1116 -1505 -64 -85 -272 -366 -463
-625 -191 -258 -363 -484 -381 -502 -112 -107 -299 6 -259 157 6 22 677 935
1838 2500 1006 1356 1845 2485 1864 2509 54 67 123 87 195 57z m-4203 -846 l0
-740 475 0 475 0 0 -140 0 -140 -660 0 -660 0 0 880 0 880 185 0 185 0 0 -740z
m4796 -2560 c314 -28 502 -171 545 -414 42 -242 -68 -466 -276 -562 -40 -19
-78 -34 -84 -34 -6 0 -11 -4 -11 -10 0 -5 102 -168 226 -361 124 -193 228
-358 231 -365 4 -12 -30 -14 -199 -14 l-204 0 -163 268 c-90 147 -182 297
-205 334 l-41 68 -217 0 -218 0 0 -335 0 -335 -182 2 -183 3 -3 870 c-1 479 0
876 3 883 6 15 809 17 981 2z"/>
<path d="M7320 4360 l0 -261 298 3 c288 3 299 4 349 27 62 27 115 82 134 137
34 100 5 236 -63 287 -74 57 -98 61 -420 65 l-298 4 0 -262z"/>
</g>
</svg>
