<svg version="1" xmlns="http://www.w3.org/2000/svg" width="933.333" height="933.333" viewBox="0 0 700.000000 700.000000"><path d="M76.7 1.6C37.9 8.6 8.5 38.4 1.5 77.8c-2.2 12-2.2 532.1 0 544.5 6.8 39.3 36.9 69.4 76.2 76.2 12.9 2.3 531.7 2.3 544.6 0 39.2-6.8 69.4-37 76.2-76.2 2.3-12.9 2.3-531.7 0-544.6C692.9 45.8 670.8 18.2 642 7 623.5-.1 651.2.6 353 .4 125.1.2 83.3.4 76.7 1.6zm105.1 164c5.5 3.6 5.2-5.5 5.2 177.9V513h77.1c69.3 0 77.4.2 80.5 1.6 8.5 4.1 8.5 16.7 0 20.8-3.1 1.4-11.7 1.6-87.3 1.6-93.7 0-88.9.4-92.5-7-1.7-3.3-1.8-14-1.8-180s.1-176.7 1.8-180c3.2-6.4 10.8-8.4 17-4.4zm268.9-1.5c32.3 3.6 58.3 19.9 71.2 44.8 7.9 15.3 11.1 30.3 11.1 52.1 0 48.4-18 80.5-53 94.4-11.3 4.5-22.3 5.9-52.1 6.5l-28.5.6 67.8 78c47.4 54.6 68.1 79.1 68.9 81.7 1.6 5-1.1 10.6-6.4 13.2-8.2 4-3.4 8.8-88.8-89.5-46.2-53.2-77.9-90.5-78.6-92.5-1.6-4.4.1-9.9 4-12.8 2.8-2 4.2-2.1 48-2.7 39-.5 46-.8 51.1-2.3 23.3-6.9 36.4-22.2 42.3-49.6 2.7-12.7 2.4-40.6-.5-51.3-2.6-9.4-7.7-19.5-13.2-25.9-6.1-7-17.5-14.2-28.8-18l-9.7-3.3-97.3-.5-97.4-.5-3.5-3.9c-3.2-3.5-3.5-4.3-3-8.3.5-4.9 2.7-7.9 7.2-9.9 3.9-1.7 174.1-2 189.2-.3z"/></svg>