<?xml version="1.0" standalone="no"?>
<!DOCTYPE svg PUBLIC "-//W3C//DTD SVG 20010904//EN"
 "http://www.w3.org/TR/2001/REC-SVG-20010904/DTD/svg10.dtd">
<svg version="1.0" xmlns="http://www.w3.org/2000/svg"
 width="300.000000pt" height="300.000000pt" viewBox="0 0 300.000000 300.000000"
 preserveAspectRatio="xMidYMid meet">
<metadata>
Created by potrace 1.11, written by Peter Selinger 2001-2013
</metadata>
<g transform="translate(0.000000,300.000000) scale(0.100000,-0.100000)"
fill="#000000" stroke="none">
<path d="M0 1500 l0 -1500 1500 0 1500 0 0 1500 0 1500 -1500 0 -1500 0 0
-1500z m822 763 c17 -15 18 -51 18 -730 l0 -713 328 0 c242 0 331 -3 340 -12
19 -19 15 -66 -7 -78 -13 -6 -148 -10 -372 -10 -314 0 -354 2 -371 17 -17 15
-18 52 -18 761 0 680 1 747 17 764 20 22 41 23 65 1z m1220 -11 c157 -63 238
-192 238 -378 0 -200 -77 -341 -216 -394 -47 -18 -87 -24 -198 -29 l-140 -6
271 -311 c148 -171 277 -321 285 -333 31 -45 -18 -101 -61 -70 -21 15 -623
707 -648 745 -14 22 -14 26 1 48 15 24 16 25 219 28 195 3 205 4 252 29 90 46
135 142 135 290 0 143 -44 225 -148 276 l-57 28 -415 3 c-275 2 -419 7 -427
14 -19 15 -16 65 5 78 11 7 155 9 432 7 405 -2 416 -3 472 -25z"/>
</g>
</svg>
