<?xml version="1.0" standalone="no"?>
<!DOCTYPE svg PUBLIC "-//W3C//DTD SVG 20010904//EN"
 "http://www.w3.org/TR/2001/REC-SVG-20010904/DTD/svg10.dtd">
<svg version="1.0" xmlns="http://www.w3.org/2000/svg"
 width="324.000000pt" height="324.000000pt" viewBox="0 0 324.000000 324.000000"
 preserveAspectRatio="xMidYMid meet">
<metadata>
Created by potrace 1.11, written by Peter Selinger 2001-2013
</metadata>
<g transform="translate(0.000000,324.000000) scale(0.100000,-0.100000)"
fill="#000000" stroke="none">
<path d="M958 2813 c-562 -360 -637 -411 -642 -437 -10 -48 -7 -1493 3 -1519
11 -29 1267 -837 1302 -837 17 0 832 503 1227 756 l82 54 0 782 -1 783 -643
413 c-392 251 -652 412 -667 412 -15 0 -274 -160 -661 -407z m1271 -98 l591
-380 0 -725 -1 -725 -592 -370 c-325 -203 -599 -370 -607 -370 -9 0 -282 170
-608 379 l-592 379 2 720 3 720 590 378 c325 208 597 378 607 376 9 -1 282
-173 607 -382z"/>
<path d="M1577 1659 c-313 -521 -457 -769 -457 -788 0 -36 21 -53 57 -49 26 3
67 68 485 763 276 459 457 770 458 786 0 33 -17 49 -55 49 -31 0 -39 -12 -488
-761z"/>
<path d="M850 2075 l0 -305 200 0 200 0 0 45 0 45 -140 0 -140 0 0 260 0 260
-60 0 -60 0 0 -305z"/>
<path d="M1900 1175 l0 -305 60 0 60 0 0 120 0 120 56 0 c30 0 64 -5 74 -10
10 -6 44 -60 76 -120 l57 -110 64 0 64 0 -53 101 c-29 56 -65 114 -79 129
l-26 29 29 12 c40 16 86 72 94 114 10 53 -1 123 -23 154 -11 14 -39 36 -63 49
-41 20 -58 22 -217 22 l-173 0 0 -305z m345 190 c18 -17 25 -35 25 -62 0 -76
-46 -103 -177 -103 l-73 0 0 95 0 95 100 0 c94 0 103 -2 125 -25z"/>
</g>
</svg>
