<svg width="60" height="30" viewBox="0 0 60 30" fill="none" xmlns="http://www.w3.org/2000/svg">
<path d="M43.1823 17.1597L48.8502 22.8395C49.0636 23.0532 49.4098 23.0536 49.6236 22.8402C49.8374 22.6269 49.8378 22.2806 49.6244 22.0669L43.9561 16.3867C43.7428 16.1735 43.7428 15.8265 43.9565 15.6129L49.6244 9.93316C49.8378 9.71936 49.8374 9.3731 49.6236 9.15977C49.5169 9.05324 49.3771 9 49.2373 9C49.0972 9 48.957 9.05354 48.8502 9.16059L43.1826 14.8399C42.543 15.4796 42.543 16.5204 43.1823 17.1597Z" fill="#256265"/>
<path d="M12.1823 17.1597L17.8502 22.8395C18.0636 23.0532 18.4098 23.0536 18.6236 22.8402C18.8374 22.6269 18.8378 22.2806 18.6244 22.0669L12.9561 16.3867C12.7428 16.1735 12.7428 15.8265 12.9565 15.6129L18.6244 9.93316C18.8378 9.71936 18.8374 9.3731 18.6236 9.15977C18.5169 9.05324 18.3771 9 18.2373 9C18.0972 9 17.957 9.05354 17.8502 9.16059L12.1826 14.8399C11.543 15.4796 11.543 16.5204 12.1823 17.1597Z" fill="#222222"/>
</svg>
