<svg width="75" height="80" viewBox="0 0 75 80" fill="none" xmlns="http://www.w3.org/2000/svg">
<path d="M0 0V5.3363H9.78423V15.7903H15.1473V0H0Z" fill="#222222"/>
<path d="M5.36356 10.4565H0.00012207V15.7903H5.36356V10.4565Z" fill="#222222"/>
<path d="M9.78423 20.9111V59.2319L5.36311 64.3874V20.9111H0V77.6738L15.1449 61.8859L15.1473 61.8835V20.9111H9.78423Z" fill="#222222"/>
<path d="M38.9848 0.000976562H20.1725V15.7905H39.2686C51.8472 15.7905 58.7744 24.3698 58.7744 39.9476C58.7744 54.6855 51.1179 64.2094 39.2686 64.2094H20.2061L14.944 69.5431H39.2682C54.1427 69.5431 64.1367 57.6494 64.1367 39.9476C64.1367 21.4799 54.8597 10.455 39.3204 10.455H25.3793V5.3347H38.9848C58.4654 5.3347 69.6378 17.9504 69.6378 39.9476C69.6378 61.0365 57.3136 74.6643 38.2404 74.6643H10.4236L5.15991 79.9998H38.24C60.2269 79.9998 74.9999 63.9038 74.9999 39.9478C75.0001 14.9333 61.5366 0.000976562 38.9848 0.000976562Z" fill="#004B87"/>
</svg>
