<svg width="50" height="50" viewBox="0 0 50 50" fill="none" xmlns="http://www.w3.org/2000/svg">
<path d="M41.1458 50H8.85417C3.95833 50 0 45.9402 0 40.9188V9.0812C0 4.05983 3.95833 0 8.85417 0H41.1458C46.0417 0 50 4.05983 50 9.0812V40.9188C50 45.9402 46.0417 50 41.1458 50Z" fill="#FF26BE"/>
<path d="M40.3541 47.8632H9.64575C5.47909 47.8632 2.08325 44.3803 2.08325 40.1068V9.89316C2.08325 5.61966 5.47909 2.13675 9.64575 2.13675H40.3333C44.5208 2.13675 47.8958 5.61966 47.8958 9.89316V40.0855C47.9166 44.3803 44.5208 47.8632 40.3541 47.8632Z" fill="#2E001F"/>
<path d="M19.7709 23.3974L25.6042 34.8932C25.7084 35.0641 25.6459 35.2351 25.4792 35.2351H21.8542C21.6251 35.2351 21.5209 35.171 21.4167 34.9573C20.0834 32.1368 18.7292 29.3162 17.3334 26.2821H17.2917C16.0417 29.1453 14.6667 32.1581 13.3334 34.9786C13.2292 35.1496 13.1251 35.2137 12.9584 35.2137H9.52089C9.31255 35.2137 9.29172 35.0427 9.39589 34.9145L15.1042 23.7607L9.58339 12.4786C9.45839 12.3077 9.58339 12.1795 9.70839 12.1795H13.2917C13.5001 12.1795 13.5834 12.2222 13.6667 12.4145C14.9792 15.235 16.3126 18.141 17.5626 20.9829H17.6042C18.8126 18.1624 20.1459 15.2351 21.4376 12.4359C21.5417 12.265 21.6042 12.1581 21.8126 12.1581H25.1667C25.3334 12.1581 25.3959 12.2863 25.2917 12.4573L19.7709 23.3974ZM26.6251 26.8804C26.6251 21.9017 29.8542 18.0128 34.9792 18.0128C35.4167 18.0128 35.6459 18.0128 36.0626 18.0556V12.3932C36.0626 12.265 36.1667 12.1795 36.2709 12.1795H39.5625C39.7292 12.1795 39.7709 12.2436 39.7709 12.3504V31.9658C39.7709 32.5427 39.7709 33.2692 39.875 34.0598C39.875 34.188 39.8334 34.2308 39.7084 34.2949C37.9584 35.1496 36.1251 35.5342 34.3751 35.5342C29.8542 35.5556 26.6251 32.6923 26.6251 26.8804ZM36.0626 21.4103C35.7709 21.2821 35.3542 21.1966 34.8542 21.1966C32.2292 21.1966 30.3959 23.2692 30.3959 26.7094C30.3959 30.641 32.2709 32.2222 34.6251 32.2222C35.1251 32.2222 35.6667 32.1581 36.0626 31.9872V21.4103Z" fill="#FFD9F2"/>
</svg>
