<svg width="512" height="512" viewBox="0 0 512 512" fill="none" xmlns="http://www.w3.org/2000/svg">
<path d="M444.875 109.792L338.208 3.125C336.208 1.125 333.5 0 330.666 0H106.666C83.146 0 64 19.135 64 42.667V245.334C64 248.167 65.125 250.876 67.125 252.876L109.792 295.543C113.959 299.71 120.709 299.71 124.875 295.543L181.333 239.085L259.125 316.877C261.208 318.96 263.938 320.002 266.667 320.002C269.396 320.002 272.125 318.96 274.209 316.877L332.022 259.064L388.751 296.877C393.001 299.71 398.605 299.148 402.209 295.544L444.876 252.877C446.876 250.877 448.001 248.169 448.001 245.335V117.335C448 114.5 446.875 111.792 444.875 109.792ZM341.333 36.417L411.583 106.667H362.666C350.895 106.667 341.333 97.094 341.333 85.334V36.417V36.417ZM426.667 240.917L393.313 274.271L336.584 236.458C332.334 233.625 326.73 234.208 323.126 237.791L266.668 294.249L188.876 216.457C186.793 214.374 184.063 213.332 181.334 213.332C178.605 213.332 175.876 214.374 173.792 216.457L117.334 272.915L85.334 240.915V42.667C85.334 30.907 94.897 21.334 106.667 21.334H320V85.334C320 108.865 339.146 128 362.667 128H426.667V240.917Z" fill="#888888"/>
<path d="M441.417 299.479C437.459 297.802 432.834 298.739 429.792 301.792L393.313 338.271L336.584 300.458C332.334 297.625 326.73 298.198 323.126 301.791L266.668 358.249L188.876 280.457C184.709 276.29 177.959 276.29 173.793 280.457L117.335 336.915L82.21 301.79C79.147 298.738 74.564 297.811 70.585 299.477C66.606 301.123 64.002 305.019 64.002 309.331V469.331C64 492.865 83.146 512 106.667 512H405.334C428.854 512 448 492.865 448 469.333V309.333C448 305.021 445.396 301.125 441.417 299.479ZM426.667 469.333C426.667 481.093 417.104 490.666 405.334 490.666H106.667C94.896 490.666 85.334 481.093 85.334 469.333V335.083L109.792 359.541C113.959 363.708 120.709 363.708 124.875 359.541L181.333 303.083L259.125 380.875C263.292 385.042 270.042 385.042 274.208 380.875L332.021 323.062L388.75 360.875C393 363.708 398.604 363.146 402.208 359.542L426.666 335.084V469.333H426.667Z" fill="#888888"/>
</svg>
