<svg width="448" height="448" viewBox="0 0 448 448" fill="none" xmlns="http://www.w3.org/2000/svg">
<path d="M56.7344 116.719C56.6484 116.93 56.6094 117.145 56.5352 117.359C56.2852 118.066 56.1328 118.805 56.0898 119.551C56.0898 119.703 56 119.84 56 120V440C56 444.418 59.582 448 64 448H384C388.418 448 392 444.418 392 440V8C392 3.58203 388.418 0 384 0H168C167.832 0 167.695 0.0898438 167.535 0.0976562C166.789 0.132812 166.055 0.28125 165.352 0.535156C165.078 0.621094 164.813 0.722656 164.551 0.839844C163.895 1.15625 163.285 1.56641 162.742 2.05469C162.57 2.17969 162.402 2.3125 162.238 2.45703C162.238 2.45703 162.152 2.51172 162.121 2.55078L58.1211 114.551C57.543 115.195 57.0742 115.926 56.7344 116.719V116.719ZM160 28.375V112H82.3438L160 28.375ZM72 128H168C172.418 128 176 124.418 176 120V16H376V432H72V128Z" fill="#256265"/>
<path d="M189.258 205.93C189.832 205.395 190.324 204.777 190.711 204.098C190.906 203.84 191.086 203.574 191.246 203.297C192.25 201.215 192.25 198.785 191.246 196.703C191.09 196.426 190.91 196.156 190.711 195.902C190.324 195.219 189.832 194.602 189.258 194.062C189.152 193.969 189.113 193.832 189 193.742L149 161.742C145.551 158.984 140.512 159.543 137.754 162.992C134.992 166.441 135.551 171.48 139 174.238L161.191 192H136C131.582 192 128 195.582 128 200C128 204.418 131.582 208 136 208H161.191L139 225.754C135.551 228.512 134.992 233.551 137.754 237C140.512 240.449 145.551 241.008 149 238.246L189 206.246C189.113 206.16 189.152 206.023 189.258 205.93Z" fill="#256265"/>
<path d="M312 192H286.809L309 174.246C312.449 171.488 313.008 166.449 310.246 163C307.488 159.551 302.449 158.992 299 161.754L259 193.754C258.887 193.84 258.848 193.977 258.742 194.07C258.168 194.605 257.676 195.223 257.289 195.902C257.094 196.16 256.914 196.426 256.754 196.703C255.75 198.785 255.75 201.215 256.754 203.297C256.914 203.574 257.094 203.84 257.289 204.098C257.676 204.777 258.168 205.395 258.742 205.93C258.848 206.023 258.887 206.16 259 206.246L299 238.246C302.449 241.008 307.488 240.449 310.246 237C313.008 233.551 312.449 228.512 309 225.754L286.809 208H312C316.418 208 320 204.418 320 200C320 195.582 316.418 192 312 192Z" fill="#256265"/>
<path d="M224 264C194.633 263.914 168.18 281.746 157.238 309C155.617 313.086 157.602 317.719 161.676 319.367C165.754 321.016 170.395 319.066 172.07 315C180.621 293.828 201.168 279.965 224 279.965C246.832 279.965 267.379 293.828 275.93 315C276.988 317.668 279.395 319.566 282.238 319.969C285.078 320.375 287.922 319.227 289.684 316.957C291.441 314.691 291.855 311.652 290.762 309C279.82 281.746 253.367 263.914 224 264Z" fill="#256265"/>
</svg>
