<svg width="45" height="50" viewBox="0 0 45 50" fill="none" xmlns="http://www.w3.org/2000/svg">
<path d="M44.4851 14.7C44.4847 13.8593 44.3049 13.1164 43.9413 12.4788C43.5841 11.8518 43.0492 11.3263 42.3317 10.9108C36.4092 7.49591 30.481 4.09141 24.5604 0.672992C22.9643 -0.248496 21.4167 -0.214902 19.8324 0.719815C17.475 2.11005 5.67271 8.87187 2.15577 10.9089C0.707391 11.7474 0.00261094 13.0306 0.00226282 14.6985C0 21.5661 0.00226282 28.4336 0 35.3014C0 36.1237 0.172496 36.8521 0.5201 37.4801C0.877451 38.1261 1.41983 38.666 2.15385 39.0909C5.67097 41.128 17.4749 47.8893 19.8317 49.2799C21.4167 50.2151 22.9643 50.2485 24.561 49.3267C30.4817 45.9081 36.4103 42.5038 42.3336 39.0888C43.0677 38.6641 43.61 38.1238 43.9674 37.4784C44.3145 36.8504 44.4873 36.1219 44.4873 35.2995C44.4873 35.2995 44.4873 21.5678 44.4851 14.7Z" fill="#A179DC"/>
<path d="M22.3116 24.933L0.52002 37.4801C0.87737 38.1261 1.41975 38.666 2.15377 39.0909C5.67089 41.128 17.4748 47.8893 19.8316 49.2799C21.4166 50.2151 22.9642 50.2485 24.5609 49.3267C30.4816 45.9081 36.4102 42.5038 42.3336 39.0888C43.0676 38.6641 43.61 38.1238 43.9673 37.4784L22.3116 24.933Z" fill="#280068"/>
<path d="M44.4851 14.7C44.4848 13.8593 44.305 13.1164 43.9413 12.4788L22.3118 24.933L43.9674 37.4784C44.3145 36.8504 44.487 36.1219 44.4874 35.2995C44.4874 35.2995 44.4874 21.5678 44.4851 14.7Z" fill="#390091"/>
<path d="M35.1419 20.2425V22.5877H37.4872V20.2425H38.6598V22.5877H41.0051V23.7604H38.6598V26.1056H41.0051V27.2783H38.6598V29.6235H37.4872V27.2783H35.1419V29.6235H33.9693V27.2783H31.624V26.1056H33.9693V23.7604H31.624V22.5877H33.9693V20.2425H35.1419ZM37.4872 23.7604H35.1419V26.1056H37.4872V23.7604Z" fill="white"/>
<path d="M22.3596 8.46396C28.4768 8.46396 33.8176 11.7862 36.6783 16.7243L36.6504 16.6768L29.4531 20.8209C28.0351 18.4199 25.4355 16.7997 22.4535 16.7663L22.3596 16.7658C17.8121 16.7658 14.1253 20.4523 14.1253 24.9998C14.1253 26.487 14.5218 27.8809 15.2113 29.085C16.6306 31.5628 19.2988 33.2341 22.3596 33.2341C25.4392 33.2341 28.1226 31.5416 29.5347 29.0373L29.5004 29.0974L36.6868 33.2606C33.8575 38.1569 28.5899 41.4689 22.5437 41.5349L22.3596 41.5359C16.223 41.5359 10.867 38.1932 8.01355 33.229C6.62053 30.8055 5.82349 27.9959 5.82349 24.9998C5.82349 15.8674 13.2268 8.46396 22.3596 8.46396Z" fill="white"/>
</svg>
