<svg width="50" height="50" viewBox="0 0 50 50" fill="none" xmlns="http://www.w3.org/2000/svg">
<path d="M43.2775 45.1384L25.2221 50L7.16648 45.1384L3 0H47.4445L43.2775 45.1384Z" fill="#2062AF"/>
<path d="M25.222 3.65625V46.1226L25.2629 46.1337L39.8743 42.1992L43.2469 3.65625H25.222V3.65625Z" fill="#3C9CD7"/>
<path d="M25.206 14.9426L12.2832 20.3246L12.7118 25.6532L25.206 20.3111L38.4967 14.6287L39.0477 9.17773L25.206 14.9426Z" fill="white"/>
<path d="M12.2831 20.3244L12.7116 25.653L25.2059 20.3109V14.9424L12.2831 20.3244V20.3244Z" fill="url(#paint0_linear)"/>
<path d="M39.0476 9.17773L25.2059 14.9424V20.3109L38.4966 14.6285L39.0476 9.17773Z" fill="url(#paint1_linear)"/>
<path d="M12.3029 20.3242L12.7315 25.6528L31.9024 25.7139L31.4735 32.8186L25.1652 34.5946L19.1011 33.0634L18.7336 28.6536H13.099L13.834 37.167L25.2265 40.5355L36.5572 37.2281L38.0272 20.3242H12.3029V20.3242Z" fill="url(#paint2_linear)"/>
<path opacity="0.05" d="M25.206 20.3242H12.2832L12.7118 25.6528L25.206 25.6927V20.3242ZM25.206 34.5776L25.1448 34.5947L19.0814 33.0636L18.714 28.6537H13.0795L13.8144 37.1671L25.206 40.5356V34.5776Z" fill="black"/>
<path d="M11.1193 9.17773H39.0476L38.4966 14.6287H11.7929L11.1193 9.17773V9.17773Z" fill="url(#paint3_linear)"/>
<path opacity="0.05" d="M25.2059 9.17773H11.1193L11.7929 14.6287H25.2059V9.17773V9.17773Z" fill="black"/>
<defs>
<linearGradient id="paint0_linear" x1="18.7445" y1="25.6531" x2="18.7445" y2="14.9425" gradientUnits="userSpaceOnUse">
<stop offset="0.387" stop-color="#D1D3D4" stop-opacity="0"/>
<stop offset="1" stop-color="#D1D3D4"/>
</linearGradient>
<linearGradient id="paint1_linear" x1="32.1266" y1="20.3111" x2="32.1266" y2="9.17787" gradientUnits="userSpaceOnUse">
<stop offset="0.387" stop-color="#D1D3D4" stop-opacity="0"/>
<stop offset="1" stop-color="#D1D3D4"/>
</linearGradient>
<linearGradient id="paint2_linear" x1="12.3029" y1="30.43" x2="38.0271" y2="30.43" gradientUnits="userSpaceOnUse">
<stop stop-color="#E8E7E5"/>
<stop offset="1" stop-color="white"/>
</linearGradient>
<linearGradient id="paint3_linear" x1="11.1193" y1="11.9032" x2="39.0475" y2="11.9032" gradientUnits="userSpaceOnUse">
<stop stop-color="#E8E7E5"/>
<stop offset="1" stop-color="white"/>
</linearGradient>
</defs>
</svg>
