<svg width="45" height="51" viewBox="0 0 45 51" fill="none" xmlns="http://www.w3.org/2000/svg">
<path d="M40.3278 45.1948L22.2499 50.0625L4.17168 45.1948L0 0H44.5L40.3278 45.1948Z" fill="#2062AF"/>
<path d="M22.2498 3.66071V46.1801L22.2906 46.1913L36.9203 42.2518L40.2971 3.66071H22.2498V3.66071Z" fill="#3C9CD7"/>
<path d="M22.2339 14.9612L9.29492 20.3499L9.72401 25.6852L22.2339 20.3364L35.5412 14.6469L36.0929 9.18918L22.2339 14.9612Z" fill="white"/>
<path d="M9.29468 20.35L9.72376 25.6852L22.2336 20.3364V14.9612L9.29468 20.35V20.35Z" fill="url(#paint0_linear)"/>
<path d="M36.0926 9.18932L22.2336 14.9612V20.3364L35.5409 14.6469L36.0926 9.18932Z" fill="url(#paint1_linear)"/>
<path d="M9.31445 20.35L9.74367 25.6852L28.9384 25.7464L28.5091 32.86L22.1929 34.6382L16.1212 33.1051L15.7533 28.6897H10.1116L10.8475 37.2137L22.2542 40.5865L33.5991 37.2749L35.0709 20.35H9.31445V20.35Z" fill="url(#paint2_linear)"/>
<path opacity="0.05" d="M22.2339 20.35H9.29492L9.72401 25.6852L22.2339 25.7252V20.35ZM22.2339 34.6212L22.1726 34.6383L16.1016 33.1052L15.7337 28.6899H10.0922L10.828 37.2139L22.2339 40.5866V34.6212Z" fill="black"/>
<path d="M8.12939 9.18932H36.0926L35.5409 14.6471H8.80388L8.12939 9.18932V9.18932Z" fill="url(#paint3_linear)"/>
<path opacity="0.05" d="M22.2336 9.18932H8.12939L8.80388 14.6471H22.2336V9.18932V9.18932Z" fill="black"/>
<defs>
<linearGradient id="paint0_linear" x1="15.7642" y1="25.6854" x2="15.7642" y2="14.9614" gradientUnits="userSpaceOnUse">
<stop offset="0.387" stop-color="#D1D3D4" stop-opacity="0"/>
<stop offset="1" stop-color="#D1D3D4"/>
</linearGradient>
<linearGradient id="paint1_linear" x1="29.163" y1="20.3365" x2="29.163" y2="9.18945" gradientUnits="userSpaceOnUse">
<stop offset="0.387" stop-color="#D1D3D4" stop-opacity="0"/>
<stop offset="1" stop-color="#D1D3D4"/>
</linearGradient>
<linearGradient id="paint2_linear" x1="9.31445" y1="30.4683" x2="35.0708" y2="30.4683" gradientUnits="userSpaceOnUse">
<stop stop-color="#E8E7E5"/>
<stop offset="1" stop-color="white"/>
</linearGradient>
<linearGradient id="paint3_linear" x1="8.12939" y1="11.9182" x2="36.0925" y2="11.9182" gradientUnits="userSpaceOnUse">
<stop stop-color="#E8E7E5"/>
<stop offset="1" stop-color="white"/>
</linearGradient>
</defs>
</svg>
