<svg width="448" height="448" viewBox="0 0 448 448" fill="none" xmlns="http://www.w3.org/2000/svg">
<path d="M56.7344 116.719C56.6484 116.93 56.6094 117.145 56.5352 117.359C56.2852 118.066 56.1328 118.805 56.0898 119.551C56.0898 119.703 56 119.84 56 120V440C56 444.418 59.582 448 64 448H384C388.418 448 392 444.418 392 440V8C392 3.58203 388.418 0 384 0H168C167.832 0 167.695 0.0898401 167.535 0.0976601C166.789 0.13281 166.055 0.28125 165.352 0.53516C165.078 0.62109 164.813 0.72266 164.551 0.83984C163.895 1.15625 163.285 1.56641 162.742 2.05469C162.57 2.17969 162.402 2.3125 162.238 2.45703C162.238 2.45703 162.152 2.51172 162.121 2.55078L58.1211 114.551C57.543 115.195 57.0742 115.926 56.7344 116.719ZM160 28.375V112H82.3438L160 28.375ZM72 128H168C172.418 128 176 124.418 176 120V16H376V432H72V128Z" fill="#256265"/>
<path d="M137 176.707L190.74 229.033" stroke="#256265" stroke-width="15" stroke-linecap="round" stroke-linejoin="round"/>
<path d="M190.033 175L137.707 228.74" stroke="#256265" stroke-width="15" stroke-linecap="round" stroke-linejoin="round"/>
<path d="M254 176.707L307.74 229.033" stroke="#256265" stroke-width="15" stroke-linecap="round" stroke-linejoin="round"/>
<path d="M307.033 175L254.707 228.74" stroke="#256265" stroke-width="15" stroke-linecap="round" stroke-linejoin="round"/>
<path d="M317 320C317 329.946 313.049 339.484 306.017 346.517C298.984 353.549 289.446 357.5 279.5 357.5C269.554 357.5 260.016 353.549 252.984 346.517C245.951 339.484 242 329.946 242 320L317 320Z" fill="#256265"/>
<path d="M124 313H324.5M317 320C317 329.946 313.049 339.484 306.017 346.517C298.984 353.549 289.446 357.5 279.5 357.5C269.554 357.5 260.016 353.549 252.984 346.517C245.951 339.484 242 329.946 242 320L317 320Z" stroke="#256265" stroke-width="15"/>
</svg>
