<svg width="50" height="51" viewBox="0 0 50 51" fill="none" xmlns="http://www.w3.org/2000/svg">
<path d="M16.3749 50.2495C20.9978 50.2495 24.7498 46.4976 24.7498 41.8746V33.4997H16.3749C11.752 33.4997 8 37.2517 8 41.8746C8 46.4976 11.752 50.2495 16.3749 50.2495Z" fill="#0ACF83"/>
<path d="M8 25.1248C8 20.5018 11.752 16.7499 16.3749 16.7499H24.7498V33.4996H16.3749C11.752 33.4996 8 29.7477 8 25.1248Z" fill="#A259FF"/>
<path d="M8.00146 8.37492C8.00146 3.75197 11.7534 0 16.3764 0H24.7513V16.7498H16.3764C11.7534 16.7498 8.00146 12.9979 8.00146 8.37492Z" fill="#F24E1E"/>
<path d="M24.75 0H33.125C37.748 0 41.4999 3.75197 41.4999 8.37492C41.4999 12.9979 37.748 16.7498 33.125 16.7498H24.75V0Z" fill="#FF7262"/>
<path d="M41.4999 25.1248C41.4999 29.7477 37.748 33.4996 33.125 33.4996C28.502 33.4996 24.75 29.7477 24.75 25.1248C24.75 20.5018 28.502 16.7499 33.125 16.7499C37.748 16.7499 41.4999 20.5018 41.4999 25.1248Z" fill="#1ABCFE"/>
</svg>
