<svg width="44" height="50" viewBox="0 0 44 50" fill="none" xmlns="http://www.w3.org/2000/svg">
<path d="M4.00609 44.936L0 0H44L39.989 44.9396L21.9893 49.9293L4.00609 44.936Z" fill="#E34E26"/>
<path d="M22 3.67303V46.1124L36.555 42.0778L39.9842 3.67303H22Z" fill="#EF662A"/>
<path d="M8.19678 9.18489L9.68234 25.8514H28.7847L28.1437 32.9999L21.9931 34.6628L15.8543 33.0024L15.4438 28.4123H9.91166L10.7027 37.2606L21.9918 40.3959L33.2952 37.2606L34.8106 20.3407H14.7231L14.2187 14.6968H35.2932H35.31L35.8037 9.18489H8.19678Z" fill="white"/>
<path d="M22.0003 9.18489H8.19678L9.68234 25.8514H22.0003V20.3407H14.7231L14.2187 14.6968H22.0003V9.18489Z" fill="#EBEBEB"/>
<path d="M21.9997 34.6604L21.9926 34.6628L15.8537 33.0023L15.4433 28.4123H9.91113L10.7022 37.2605L21.9913 40.3959L21.9997 40.3936V34.6604Z" fill="#EBEBEB"/>
</svg>
