<svg width="50" height="50" viewBox="0 0 50 50" fill="none" xmlns="http://www.w3.org/2000/svg">
<path d="M47.4 0L43.3551 44.9948L25.1729 50L7.04075 45.0018L3 0H47.4Z" fill="#E44D26"/>
<path d="M25.2001 46.1744L39.8922 42.1299L43.3487 3.67969H25.2001V46.1744Z" fill="#F16529"/>
<path d="M17.3367 14.718H25.1999V9.19873H11.2621L11.3951 10.6794L12.7613 25.8891H25.1999V20.3698H17.8447L17.3367 14.718V14.718ZM18.5895 28.6489H13.0096L13.7883 37.315L25.1744 40.4533L25.1999 40.4464V34.704L25.1756 34.7104L18.9852 33.0507L18.5895 28.6489V28.6489Z" fill="#EBEBEB"/>
<path d="M25.1808 25.8891H32.0254L31.3801 33.0472L25.1807 34.7087V40.4508L36.5758 37.315L36.6593 36.3825L37.9657 21.8519L38.1012 20.3698H25.1808V25.8891ZM25.1808 14.7045V14.718H38.607L38.7184 13.4775L38.9718 10.6794L39.1046 9.19873H25.1808V14.7047V14.7045Z" fill="white"/>
</svg>
