<svg width="50" height="50" viewBox="0 0 50 50" fill="none" xmlns="http://www.w3.org/2000/svg">
<path d="M0 50V0H50V50H0Z" fill="#FFD600"/>
<path d="M32.6916 37.4264C33.6527 38.9875 34.6971 40.4833 36.9096 40.4833C38.768 40.4833 39.743 39.5597 39.743 38.282C39.743 36.7528 38.7346 36.2097 36.6902 35.3195L35.5693 34.8417C32.3346 33.4695 30.1832 31.75 30.1832 28.1181C30.1832 24.7708 32.7457 22.2236 36.7499 22.2236C39.6013 22.2236 41.6499 23.2111 43.1277 25.7972L39.636 28.0292C38.868 26.657 38.0374 26.1167 36.7499 26.1167C35.436 26.1167 34.6041 26.9458 34.6041 28.0292C34.6041 29.3681 35.4374 29.9097 37.361 30.7389L38.4818 31.2167C42.2943 32.8403 44.4443 34.4986 44.4443 38.2264C44.4443 42.2431 41.2721 44.4445 37.0138 44.4445C32.8485 44.4445 30.4832 42.3542 29.1666 39.7667L32.6916 37.4264ZM16.5999 37.5403C17.3027 38.7986 18.3707 39.7667 19.9068 39.7667C21.3763 39.7667 22.2221 39.1861 22.2221 36.9292V22.2222H26.8513V37.6403C26.8513 42.3167 24.1388 44.4445 20.1777 44.4445C16.5985 44.4445 14.0152 42.0195 12.9624 39.7667L16.5999 37.5403Z" fill="#000001"/>
</svg>
