<svg width="40" height="54" viewBox="0 0 40 54" fill="none" xmlns="http://www.w3.org/2000/svg">
<path d="M19.733 9.99379C17.2408 11.7466 14.4162 13.7332 12.9028 17.02C10.274 22.7544 18.2818 29.0093 18.624 29.2728C18.7036 29.334 18.7988 29.3645 18.8937 29.3645C18.9945 29.3645 19.0954 29.3301 19.1774 29.2614C19.3364 29.1284 19.3814 28.9026 19.286 28.7187C19.257 28.6628 16.3827 23.0797 16.4895 19.0743C16.5273 17.6793 18.4796 16.0967 20.5464 14.4212C22.4394 12.8866 24.5853 11.1473 25.8407 9.1126C28.5969 4.63385 25.5336 0.229895 25.5023 0.185862C25.3806 0.0149963 25.156 -0.0468398 24.964 0.037329C24.7721 0.122024 24.6659 0.329444 24.7097 0.534546C24.7159 0.563726 25.3116 3.47603 23.6539 6.4765C22.9711 7.71639 21.4706 8.77171 19.733 9.99379Z" fill="#DB380E"/>
<path d="M30.2328 11.9688C30.4086 11.8363 30.4602 11.5948 30.3539 11.402C30.2474 11.2092 30.0157 11.1242 29.8098 11.2024C29.3865 11.3633 19.4424 15.1965 19.4424 19.8278C19.4424 23.0205 20.8062 24.707 21.802 25.9387C22.1926 26.4218 22.5298 26.8389 22.641 27.1951C22.9538 28.2214 22.2126 30.0765 21.9009 30.7048C21.8111 30.8853 21.8551 31.1042 22.008 31.2361C22.0905 31.3075 22.1937 31.3437 22.2969 31.3437C22.3848 31.3437 22.473 31.3176 22.5493 31.2645C22.7203 31.1456 26.7279 28.3121 26.0092 24.8983C25.7414 23.6007 25.1038 22.6526 24.5411 21.816C23.6695 20.5197 23.04 19.5834 23.995 17.8541C25.114 15.837 30.1815 12.0071 30.2328 11.9688Z" fill="#DB380E"/>
<path d="M4.34811 31.417C4.17767 31.9274 4.25815 32.4337 4.5806 32.8816C5.65857 34.3782 9.47693 35.2022 15.3327 35.2022C15.333 35.2022 15.3332 35.2022 15.3335 35.2022C16.1269 35.2022 16.9646 35.1866 17.8226 35.1558C27.1849 34.8207 30.6574 31.904 30.8007 31.78C30.9568 31.6449 30.9985 31.4198 30.9015 31.2378C30.8044 31.0559 30.5951 30.9645 30.395 31.0195C27.0977 31.9198 20.9407 32.2394 16.6701 32.2394C11.8915 32.2394 9.45786 31.8952 8.86204 31.641C9.16775 31.2212 11.0534 30.4716 13.39 30.0119C13.6133 29.9681 13.7668 29.7619 13.7447 29.5354C13.7226 29.3089 13.5323 29.1361 13.3047 29.1361C11.935 29.1361 5.06613 29.2461 4.34811 31.417Z" fill="#73A1FB"/>
<path d="M35.6764 28.4128C33.7453 28.4128 31.9142 29.3807 31.837 29.4217C31.6585 29.5174 31.5679 29.7221 31.6169 29.9189C31.6661 30.1154 31.8427 30.2535 32.0453 30.2537C32.0863 30.2537 36.1644 30.2871 36.5337 32.6172C36.8609 34.6273 32.6751 37.8843 31.0346 38.9698C30.8575 39.087 30.7887 39.3135 30.8709 39.5094C30.941 39.6762 31.1033 39.7805 31.2784 39.7805C31.309 39.7805 31.3399 39.7773 31.3707 39.7708C31.76 39.6875 40.8943 37.6746 39.9285 32.3563C39.3393 29.097 37.2908 28.4128 35.6764 28.4128Z" fill="#73A1FB"/>
<path d="M29.4122 38.3189C29.444 38.1486 29.3731 37.9753 29.2313 37.8758L27.0411 36.3417C26.9343 36.2669 26.7994 36.2434 26.674 36.2766C26.6511 36.2824 24.3608 36.8845 21.0355 37.2537C19.7158 37.4017 18.2376 37.4799 16.7605 37.4799C13.4361 37.4799 11.2625 37.0893 10.9459 36.8027C10.904 36.7223 10.9173 36.6857 10.9248 36.6654C10.9823 36.5055 11.2905 36.3154 11.4892 36.2402C11.7086 36.159 11.8269 35.9207 11.7586 35.697C11.6906 35.4729 11.4598 35.3411 11.232 35.3958C9.03501 35.926 7.96073 36.6674 8.03889 37.5993C8.17773 39.2518 12.005 40.0999 15.2406 40.324C15.7059 40.3558 16.2092 40.372 16.736 40.372C16.7363 40.372 16.7365 40.372 16.7368 40.372C22.1171 40.372 29.0145 38.6839 29.0834 38.6667C29.2518 38.6256 29.3803 38.4896 29.4122 38.3189Z" fill="#73A1FB"/>
<path d="M12.9002 41.8652C13.0661 41.7573 13.1397 41.5522 13.0808 41.3634C13.0221 41.1745 12.8454 41.0504 12.647 41.053C12.3525 41.0608 9.76596 41.1775 9.58487 42.8244C9.53009 43.3165 9.67104 43.7662 10.004 44.1607C10.9327 45.2614 13.4397 45.9155 17.6668 46.1606C18.1668 46.1906 18.6748 46.2056 19.1767 46.2056C24.5508 46.2056 28.1702 44.523 28.3217 44.4514C28.4687 44.3818 28.5656 44.2374 28.5743 44.0752C28.5829 43.913 28.5019 43.7591 28.3633 43.6743L25.5954 41.9846C25.4993 41.926 25.3844 41.9066 25.2748 41.929C25.2573 41.9327 23.4999 42.2972 20.8477 42.6573C20.3458 42.7255 19.7174 42.7602 18.98 42.7602C16.3306 42.7602 13.3837 42.3273 12.8186 42.0439C12.8104 41.991 12.8208 41.9238 12.9002 41.8652Z" fill="#73A1FB"/>
<path d="M16.6721 51.2861C28.9818 51.2757 35.5886 49.0865 36.8614 47.709C37.3119 47.2217 37.3606 46.7603 37.3224 46.4589C37.2278 45.7173 36.5522 45.2632 36.4756 45.2139C36.2908 45.0951 36.0429 45.1262 35.8987 45.2924C35.755 45.4587 35.7516 45.7016 35.8959 45.8677C35.9735 45.9676 36.0184 46.1347 35.7914 46.362C35.2826 46.8372 30.1508 48.2796 21.6064 48.713C20.4359 48.7738 19.2083 48.8048 17.9577 48.805C10.3074 48.805 4.70858 47.757 3.97361 47.1465C4.25687 46.7394 6.23732 46.0891 8.34343 45.7213C8.58077 45.6799 8.7411 45.4562 8.70434 45.2182C8.66757 44.9802 8.44814 44.8164 8.20828 44.8475C8.14886 44.8556 7.94724 44.8676 7.7138 44.8819C4.23876 45.0941 0.222988 45.5669 0.0134619 47.3575C-0.050165 47.903 0.111958 48.3983 0.49551 48.8294C1.43401 49.8839 4.13152 51.2859 16.6717 51.2859C16.6719 51.2861 16.6719 51.2861 16.6721 51.2861Z" fill="#73A1FB"/>
<path d="M39.2792 48.0972C39.1052 48.0167 38.8995 48.0573 38.7698 48.1974C38.7518 48.2169 36.901 50.1522 31.3364 51.2886C29.206 51.7155 25.2072 51.9319 19.451 51.9319C13.684 51.9319 8.19638 51.705 8.14171 51.7027C7.91248 51.6916 7.71644 51.8582 7.68526 52.0839C7.65397 52.3093 7.79935 52.5219 8.02067 52.5745C8.07777 52.588 13.8287 53.9354 21.6919 53.9354C25.4633 53.9354 29.1332 53.6291 32.6 53.0247C39.0639 51.8915 39.5164 48.6863 39.5326 48.5505C39.5551 48.3605 39.4529 48.1776 39.2792 48.0972Z" fill="#73A1FB"/>
</svg>
