<svg width="57" height="71" viewBox="0 0 57 71" fill="none" xmlns="http://www.w3.org/2000/svg">
<path d="M56 19.5155V51.599C56 51.9362 55.83 52.2507 55.5479 52.4355L29.2759 69.6427C28.9444 69.8599 28.516 69.8608 28.1836 69.645L1.45554 52.2957C1.17145 52.1113 1 51.7956 1 51.4569L1 19.5205C1 19.1816 1.17165 18.8657 1.45603 18.6814L28.1819 1.35562C28.5152 1.13957 28.9447 1.14122 29.2763 1.35982L55.5504 18.6806C55.8311 18.8656 56 19.1793 56 19.5155Z" stroke="#FCFCFC" stroke-width="1.25" stroke-linecap="round"/>
<path d="M15.5 51L38.5 20" stroke="#FCFCFC" stroke-width="1.25" stroke-linecap="round"/>
<path d="M10.5755 30.765V19.7571H12.0677V29.5462H17.6302V30.765H10.5755Z" fill="#FCFCFC"/>
<path d="M44.4694 51.3474L41.61 46.7771H38.1803V51.3474H36.6881V40.3396H41.8678C43.1074 40.3396 44.0631 40.6182 44.735 41.1755C45.4121 41.7276 45.7506 42.4984 45.7506 43.488C45.7506 44.3057 45.511 44.9932 45.0319 45.5505C44.5579 46.1078 43.9017 46.4594 43.0631 46.6052L46.1881 51.3474H44.4694ZM44.2506 43.5036C44.2506 42.863 44.0319 42.376 43.5944 42.0427C43.1621 41.7042 42.5371 41.5349 41.7194 41.5349H38.1803V45.5974H41.7819C42.5683 45.5974 43.1751 45.4151 43.6022 45.0505C44.0345 44.6807 44.2506 44.1651 44.2506 43.5036Z" fill="#FCFCFC"/>
</svg>
