<svg width="68" height="68" viewBox="0 0 68 68" fill="none" xmlns="http://www.w3.org/2000/svg">
<path d="M17.0637 4.47985C15.1043 5.61233 13.2674 6.93668 11.5812 8.42572C10.5165 9.36464 9.51304 10.3681 8.57428 11.4327V4.26591H8.57377C8.5624 1.90756 6.64804 0 4.28714 0C1.92607 0 0.0118836 1.90756 0.000507788 4.26591H0V63.6492C0.00254682 66.0157 1.92064 67.9321 4.28714 67.9321C6.65381 67.9321 8.57174 66.0157 8.57428 63.6492V56.3553C9.51304 57.4198 10.5165 58.4233 11.5812 59.362C13.2674 60.8511 15.1043 62.1754 17.0637 63.3079C19.6905 64.8294 22.541 66.006 25.5531 66.7802C27.2051 67.2064 28.9064 67.5119 30.6467 67.6832V59.1361C28.886 58.9036 27.1813 58.4875 25.5531 57.9138C22.3899 56.7948 19.512 55.0681 17.0637 52.8745C16.3591 52.2461 15.6901 51.5771 15.0619 50.8725C12.8682 48.4241 11.1415 45.5464 10.0224 42.3831C9.44869 40.7548 9.03271 39.0502 8.8001 37.2895C8.65068 36.1791 8.57428 35.0449 8.57428 33.8937C8.57428 32.7426 8.65068 31.6084 8.8001 30.498C9.03271 28.7373 9.44869 27.0326 10.0224 25.4043C11.1415 22.2412 12.8682 19.3633 15.0619 16.9149C15.6901 16.2103 16.3591 15.5414 17.0637 14.9131C19.512 12.7195 22.3899 10.9927 25.5531 9.87384C27.1813 9.29996 28.886 8.88397 30.6467 8.65137V0.104249C28.9064 0.275735 27.2051 0.581354 25.5531 1.00752C22.541 1.78209 19.6905 2.95855 17.0637 4.47985Z" fill="#222222"/>
<path d="M19.3352 25.4046C18.4337 26.9633 17.7715 28.6782 17.4031 30.4983C17.1805 31.5951 17.0635 32.731 17.0635 33.894C17.0635 35.0571 17.1805 36.193 17.4031 37.2898C17.7715 39.1099 18.4337 40.8248 19.3352 42.3834C20.826 44.9606 22.9755 47.1102 25.5529 48.6012C27.1115 49.5026 28.8262 50.1648 30.6465 50.5332V41.6756C28.689 40.8215 27.1149 39.2476 26.2609 37.29C25.8059 36.2492 25.5529 35.1014 25.5529 33.8942C25.5529 32.687 25.8059 31.5393 26.2609 30.4985C27.1149 28.5408 28.689 26.9669 30.6465 26.1128V17.255C28.8262 17.6234 27.1115 18.2856 25.5529 19.1872C22.9755 20.6778 20.826 22.8271 19.3352 25.4046Z" fill="#004B87"/>
<path d="M48.7497 42.3834C49.6513 40.8247 50.3135 39.1098 50.6819 37.2897C50.9043 36.1929 51.0215 35.057 51.0215 33.894C51.0215 32.7309 50.9043 31.595 50.6819 30.4982C50.3135 28.6781 49.6513 26.9632 48.7497 25.4046C47.259 22.8272 45.1095 20.6777 42.5321 19.1869C40.9735 18.2854 39.2586 17.6232 37.4385 17.2548V26.1126C39.3961 26.9666 40.9701 28.5406 41.8241 30.4982C42.2791 31.539 42.5321 32.6868 42.5321 33.894C42.5321 35.1012 42.2791 36.2489 41.8241 37.2897C40.9701 39.2474 39.3961 40.8213 37.4385 41.6753V50.533C39.2586 50.1646 40.9735 49.5024 42.5321 48.601C45.1095 47.1101 47.259 44.9606 48.7497 42.3834Z" fill="#004B87"/>
<path d="M67.832 30.4983C67.6605 28.758 67.3549 27.0567 66.9289 25.4047C66.1545 22.3927 64.9781 19.5419 63.4568 16.9153C62.3243 14.9559 60.9998 13.1188 59.5109 11.4329C58.572 10.3683 57.5685 9.36484 56.504 8.42591C54.818 6.93687 52.9808 5.61253 51.0215 4.48005C48.3949 2.95875 45.5441 1.78212 42.5321 1.00789C40.8801 0.581719 39.1788 0.2761 37.4385 0.104614V8.65173C39.1992 8.88434 40.9038 9.30032 42.5321 9.8742C45.6953 10.9931 48.5732 12.7198 51.0215 14.9135C51.7261 15.5417 52.3951 16.2107 53.0233 16.9153C55.217 19.3636 56.9437 22.2415 58.0626 25.4047C58.6365 27.033 59.0525 28.7376 59.2851 30.4983C59.4345 31.6087 59.5109 32.7429 59.5109 33.8941C59.5109 35.0452 59.4345 36.1794 59.2851 37.2898C59.0525 39.0505 58.6365 40.7552 58.0626 42.3835C56.9437 45.5466 55.217 48.4245 53.0233 50.8729C52.3951 51.5775 51.7261 52.2464 51.0215 52.8748C48.5732 55.0685 45.6953 56.7952 42.5321 57.9141C40.9038 58.4878 39.1992 58.904 37.4385 59.1364V67.6835C39.1788 67.5121 40.8801 67.2066 42.5321 66.7806C45.5441 66.0062 48.3949 64.8298 51.0215 63.3083C52.9808 62.1758 54.818 60.8513 56.504 59.3624C57.5685 58.4237 58.572 57.4202 59.5109 56.3556C60.9999 54.6696 62.3243 52.8325 63.4568 50.873C64.9781 48.2466 66.1547 45.3957 66.9289 42.3836C67.3551 40.7316 67.6607 39.0303 67.832 37.29C67.9441 36.1728 68.0001 35.0403 68.0001 33.8942C68.0001 32.7482 67.9441 31.6155 67.832 30.4983Z" fill="#222222"/>
</svg>
