<svg width="67" height="50" viewBox="0 0 67 50" fill="none" xmlns="http://www.w3.org/2000/svg">
<g clip-path="url(#clip0)">
<path d="M57.37 28.7239C55.0392 28.7369 53.021 29.2968 51.3283 30.1301C50.7033 28.8931 50.0783 27.8124 49.9741 27.0051C49.8569 26.0676 49.7137 25.4947 49.8569 24.3749C50.0002 23.2551 50.6512 21.6666 50.6512 21.5364C50.6382 21.4192 50.508 20.8463 49.1668 20.8333C47.8257 20.8202 46.6668 21.0937 46.5366 21.4452C46.4064 21.7968 46.146 22.6041 45.9767 23.4374C45.7423 24.6614 43.2944 28.9973 41.9012 31.276C41.4455 30.3905 41.0549 29.6093 40.9767 28.9843C40.8595 28.0468 40.7163 27.4739 40.8595 26.3541C41.0028 25.2343 41.6538 23.6458 41.6538 23.5155C41.6408 23.3984 41.5106 22.8254 40.1694 22.8124C38.8283 22.7994 37.6694 23.0728 37.5392 23.4244C37.409 23.776 37.2658 24.6093 36.9793 25.4166C36.7059 26.2239 33.4507 33.4635 32.6043 35.3515C32.1746 36.315 31.797 37.0833 31.5236 37.6041C31.2502 38.1249 31.5106 37.6431 31.4845 37.6952C31.2502 38.1379 31.12 38.3853 31.12 38.3853V38.3984C30.9377 38.7239 30.7423 39.0364 30.6512 39.0364C30.5861 39.0364 30.4559 38.164 30.6772 36.9661C31.159 34.453 32.3309 30.5338 32.3179 30.3905C32.3179 30.3254 32.5392 29.6353 31.5627 29.2838C30.6121 28.9322 30.2736 29.5181 30.1955 29.5181C30.1173 29.5181 30.0522 29.7265 30.0522 29.7265C30.0522 29.7265 31.1069 25.3124 28.034 25.3124C26.1069 25.3124 23.4507 27.4088 22.1356 29.3228C21.3022 29.7786 19.5314 30.7421 17.6564 31.7708C16.9403 32.1614 16.1981 32.578 15.495 32.9556L15.3517 32.7994C11.6278 28.828 4.73975 26.0155 5.02621 20.677C5.13038 18.7369 5.80746 13.6197 18.2554 7.4218C28.4507 2.34367 36.6147 3.7369 38.034 6.83586C40.0522 11.2629 33.672 19.4921 23.0731 20.677C19.0366 21.1327 16.9142 19.5702 16.3804 18.9843C15.8205 18.3723 15.7424 18.3463 15.534 18.4635C15.1955 18.6458 15.4038 19.1926 15.534 19.5181C15.8465 20.3385 17.1486 21.7968 19.3621 22.526C21.3022 23.164 26.0418 23.5155 31.771 21.302C38.1903 18.815 43.2033 11.914 41.7319 6.14575C40.2345 0.273359 30.495 -1.65373 21.2892 1.6145C15.8075 3.56763 9.86996 6.6145 5.59913 10.6119C0.521001 15.3515 -0.28629 19.4921 0.0522513 21.2109C1.23715 27.3437 9.68767 31.3411 13.0731 34.2968C12.9038 34.3879 12.7476 34.4791 12.6043 34.5572C10.9116 35.3905 4.46631 38.7629 2.85173 42.3307C1.02881 46.3671 3.13819 49.2708 4.54444 49.6614C8.8934 50.8723 13.3465 48.6978 15.7554 45.1171C18.1512 41.5364 17.8647 36.8879 16.758 34.7655L16.7189 34.6874L18.047 33.9062C18.9064 33.3984 19.7528 32.9296 20.495 32.526C20.0783 33.6588 19.7788 34.9999 19.6226 36.953C19.4403 39.2447 20.3778 42.2135 21.6147 43.3853C22.1616 43.8932 22.8127 43.9062 23.2163 43.9062C24.6486 43.9062 25.2996 42.7213 26.0158 41.302C26.9012 39.5702 27.6825 37.565 27.6825 37.565C27.6825 37.565 26.7059 42.9947 29.3752 42.9947C30.3517 42.9947 31.3283 41.7317 31.771 41.0806V41.0937C31.771 41.0937 31.797 41.0546 31.8491 40.9635C31.9533 40.8072 32.0054 40.7161 32.0054 40.7161V40.69C32.396 40.0129 33.2684 38.4635 34.5705 35.8984C36.2502 32.5911 37.8647 28.4504 37.8647 28.4504C37.8647 28.4504 38.021 29.4661 38.5028 31.1327C38.7892 32.1223 39.4142 33.203 39.896 34.2577C39.5054 34.8046 39.271 35.1171 39.271 35.1171L39.284 35.1301C38.9715 35.5468 38.62 35.9895 38.2554 36.4322C36.9272 38.0208 35.3387 39.8306 35.1304 40.3515C34.883 40.9635 34.9351 41.4192 35.4168 41.7838C35.7684 42.0442 36.3934 42.0963 37.0575 42.0442C38.2554 41.9661 39.0887 41.6666 39.5054 41.4843C40.1564 41.2499 40.8986 40.8984 41.6147 40.3775C42.9168 39.414 43.7111 38.0468 43.633 36.2239C43.5939 35.2213 43.2684 34.2317 42.8647 33.2942C42.9819 33.1249 43.0991 32.9556 43.2163 32.7734C45.2736 29.7655 46.8621 26.4583 46.8621 26.4583C46.8621 26.4583 47.0184 27.4739 47.5002 29.1405C47.7476 29.9869 48.2423 30.9114 48.6851 31.8228C46.758 33.3984 45.547 35.2213 45.1304 36.4192C44.3621 38.6327 44.9611 39.6353 46.0939 39.8697C46.6017 39.9739 47.3309 39.7395 47.8778 39.5051C48.5548 39.2838 49.3752 38.9062 50.1304 38.3463C51.4325 37.3827 52.6825 36.0416 52.6173 34.2317C52.5783 33.3984 52.3569 32.578 52.0574 31.7968C53.6981 31.1197 55.8205 30.7291 58.5158 31.0546C64.3101 31.7317 65.4559 35.3515 65.2345 36.8619C65.0132 38.3723 63.8022 39.2057 63.3986 39.4661C62.9949 39.7135 62.8647 39.8046 62.9038 39.9869C62.9559 40.2603 63.1382 40.2473 63.4897 40.1952C63.9715 40.1171 66.5366 38.9583 66.6408 36.1718C66.797 32.5911 63.3986 28.6848 57.37 28.7239V28.7239ZM12.6825 43.789C10.7684 45.8853 8.07308 46.6796 6.92725 46.0025C5.69027 45.2864 6.17204 42.2004 8.52881 39.9739C9.9611 38.6197 11.8231 37.3697 13.047 36.6015C13.3205 36.4322 13.7371 36.1848 14.2319 35.8853C14.3101 35.8333 14.3621 35.8072 14.3621 35.8072C14.4533 35.7551 14.5575 35.69 14.6616 35.6249C15.534 38.802 14.7007 41.5885 12.6825 43.789V43.789ZM26.6799 34.2708C26.0158 35.8984 24.6095 40.078 23.7632 39.8437C23.034 39.6484 22.5913 36.4843 23.62 33.3593C24.1408 31.7838 25.2476 29.9088 25.8986 29.1796C26.9533 28.0077 28.0991 27.6171 28.3856 28.0989C28.7241 28.7239 27.0965 33.2551 26.6799 34.2708ZM38.2293 39.7916C37.9429 39.9348 37.6825 40.039 37.5653 39.9609C37.4741 39.9088 37.6825 39.7135 37.6825 39.7135C37.6825 39.7135 39.1278 38.164 39.7007 37.4478C40.0262 37.0312 40.4168 36.5494 40.8335 36.0025V36.1588C40.8335 38.0338 39.0366 39.2838 38.2293 39.7916V39.7916ZM47.1356 37.7603C46.9272 37.6041 46.9533 37.1223 47.6564 35.6119C47.9298 35.0129 48.5548 34.0103 49.6356 33.0598C49.7658 33.4504 49.8439 33.828 49.8309 34.1796C49.8179 36.5234 48.1512 37.3958 47.1356 37.7603Z" fill="#CF649A"/>
</g>
<defs>
<clipPath id="clip0">
<rect width="66.6667" height="50" fill="white"/>
</clipPath>
</defs>
</svg>
