<svg width="50" height="50" viewBox="0 0 50 50" fill="none" xmlns="http://www.w3.org/2000/svg">
<g clip-path="url(#clip0)">
<path d="M48 0.000104308H2.00004C1.01689 0.000211902 0.254179 -0.237471 3.90112e-05 7.74562e-05C-0.262812 0.245768 4.17829e-05 0.983255 4.17829e-05 2.0001V48.0001C4.17829e-05 49.1047 -1.10448 50 8.67248e-05 50H50C51.1046 50 50 49.1047 50 48.0001V2.0001C50 0.884933 50.3467 0.218435 50 0.000162214C49.7249 -0.173026 48.8849 0.000104308 48 0.000104308Z" fill="#764B72"/>
<path d="M30.3336 30.1666V43.3334C30.3336 43.3334 30.2878 45.6666 32.5836 45.6666C34.8794 45.6666 34.9168 43.3334 34.9168 43.3334V30.1666C34.9168 30.1666 34.8336 28 32.5836 28C30.3336 28 30.3336 30.1666 30.3336 30.1666Z" fill="#FCFCFC"/>
<path d="M34.9169 29.9658V32.4658V37.5004V43.1672C34.9169 43.1672 35.0003 45.0838 33.3335 45.5838C33.3335 45.5838 33.0901 45.6672 32.5003 45.6672C31.9103 45.6672 31.4169 45.4172 31.4169 45.4172C32.2597 45.4172 33.1875 44.6326 33.1875 44.0494C33.1875 43.4662 33.1875 40.9914 33.1875 38.5504V34.8012V29.9688C33.1033 28.469 31.3335 28.3024 31.3335 28.3024C31.9235 27.8026 33.2951 27.933 33.7775 28.2192C33.9861 28.3428 34.7483 28.7992 34.9169 29.9658Z" fill="#EFEFEF"/>
<path d="M23.6032 28C22.33 28 21.2978 29.0322 21.2978 30.3056V39.3386C21.2978 39.6686 21.2978 40.2826 20.0898 40.8908C19.7553 41.0592 19.3868 41.1412 18.9634 41.1412C18.962 41.1412 18.9604 41.1412 18.9591 41.1412C18.509 41.1406 18.1218 41.0326 17.7749 40.811C16.8528 40.2218 16.7777 39.8 16.7777 39.3482V30.3056C16.7777 29.0322 15.7454 28 14.4721 28C13.1987 28 12.1665 29.0322 12.1665 30.3056V39.3482C12.1665 41.5722 13.2182 43.3718 15.2924 44.697C16.3858 45.3954 17.6173 45.7508 18.953 45.7526H18.9634C20.108 45.7526 21.1848 45.5026 22.164 45.0094C24.5792 43.7932 25.9092 41.7792 25.9092 39.3388V30.3058C25.9088 29.0322 24.8766 28 23.6032 28Z" fill="#FCFCFC"/>
<path d="M25.9166 30.3054V34.8334V39.3334C25.9166 41.7746 24.5234 43.794 22.1072 45.0094C21.1292 45.5028 20.0524 45.7524 18.907 45.7524H18.8965C18.4755 45.751 18.065 45.7166 17.6665 45.6468C18.3448 45.5294 18.9915 45.3168 19.5998 45.0094C22.016 43.794 23.345 41.78 23.345 39.3386V30.3054C23.345 29.4938 22.9666 28.827 22.3332 28.4166C22.6934 28.1818 23.0838 28 23.547 28C24.8204 28 25.9166 29.032 25.9166 30.3054Z" fill="#EFEFEF"/>
<path d="M18.2703 4.19922C16.9969 4.19922 15.9647 5.23144 15.9647 6.5048V15.5379C15.9647 15.8678 15.9647 16.4818 14.7567 17.0901C14.4222 17.2585 14.0537 17.3404 13.6304 17.3404C13.629 17.3404 13.6274 17.3404 13.6261 17.3404C13.176 17.3398 12.7888 17.2319 12.4419 17.0102C11.5197 16.4211 11.4446 15.9992 11.4446 15.5474V6.5048C11.4446 5.23144 10.4124 4.19922 9.13908 4.19922C7.8657 4.19922 6.8335 5.23144 6.8335 6.5048V15.5475C6.8335 17.7715 7.8852 19.5711 9.95936 20.8961C11.0528 21.5947 12.2843 21.9499 13.62 21.9517H13.6304C14.775 21.9517 15.8518 21.7017 16.831 21.2087C19.2461 19.9925 20.5762 17.9785 20.5762 15.538V6.50492C20.5758 5.23144 19.5436 4.19922 18.2703 4.19922Z" fill="#FCFCFC"/>
<path d="M39.6968 18.4064L35.3406 12.6663L38.9632 7.86198C39.7298 6.84522 39.5272 5.39956 38.5104 4.63296C37.4934 3.86594 36.0478 4.06904 35.2814 5.08578L32.4436 8.84922L29.583 5.08006C28.8132 4.06578 27.3668 3.86764 26.3526 4.63724C25.3382 5.4071 25.14 6.85342 25.9098 7.8677L29.5584 12.6754L25.4082 18.1796C24.6416 19.1964 24.8442 20.642 25.861 21.4086C26.2766 21.7222 26.764 21.8734 27.2474 21.8734C27.9464 21.8734 28.637 21.5568 29.0902 20.9558L32.4556 16.4927L36.0236 21.194C36.4772 21.7916 37.1654 22.106 37.8618 22.106C38.3476 22.106 38.8374 21.953 39.254 21.6368C40.2684 20.867 40.4668 19.4206 39.6968 18.4064Z" fill="#FCFCFC"/>
<path d="M39.2544 21.6361C38.8374 21.9529 38.3478 22.1059 37.862 22.1059C37.4214 22.1059 36.9832 21.9791 36.607 21.7337C36.6546 21.7033 36.7006 21.6705 36.747 21.6361C37.7618 20.8667 37.9598 19.4202 37.1904 18.4054L33.194 13.1403C32.9812 12.8598 32.9806 12.472 33.1924 12.1908L36.4566 7.86115C37.2234 6.84505 37.0202 5.39861 36.004 4.63185C35.9592 4.59885 35.9142 4.56715 35.868 4.53817C36.6574 4.02609 37.7156 4.03143 38.5114 4.63185C39.5274 5.39861 39.7308 6.84491 38.964 7.86115L35.3416 12.6662L39.6978 18.4054C40.4672 19.4202 40.2692 20.8667 39.2544 21.6361Z" fill="#EFEFEF"/>
<path d="M20.5752 6.56425V15.5975C20.5752 18.0388 19.2462 20.0528 16.83 21.2682C15.8521 21.7616 14.7752 22.011 13.6298 22.011H13.6192C13.1983 22.0098 12.732 21.9032 12.3335 21.8332C13.0118 21.7158 13.7142 21.5756 14.3226 21.2682C16.7389 20.0528 18.0678 18.0388 18.0678 15.5975V6.56425C18.0678 5.75267 17.6495 5.03997 17.016 4.62963C17.3763 4.39471 17.8065 4.25879 18.2698 4.25879C19.5431 4.25879 20.5752 5.29075 20.5752 6.56425Z" fill="#EFEFEF"/>
</g>
<defs>
<clipPath id="clip0">
<rect width="50" height="50" fill="white"/>
</clipPath>
</defs>
</svg>
