<svg width="25" height="25" viewBox="0 0 25 25" fill="none" xmlns="http://www.w3.org/2000/svg">
<rect width="25" height="25" rx="1" fill="#764B72"/>
<path d="M15.1668 15.0833V21.6667C15.1668 21.6667 15.1439 22.8333 16.2918 22.8333C17.4397 22.8333 17.4584 21.6667 17.4584 21.6667V15.0833C17.4584 15.0833 17.4168 14 16.2918 14C15.1668 14 15.1668 15.0833 15.1668 15.0833Z" fill="#FCFCFC"/>
<path d="M17.4584 14.9827V16.2327V18.75V21.5834C17.4584 21.5834 17.5001 22.5417 16.6667 22.7917C16.6667 22.7917 16.545 22.8334 16.2501 22.8334C15.9551 22.8334 15.7084 22.7084 15.7084 22.7084C16.1298 22.7084 16.5937 22.3161 16.5937 22.0245C16.5937 21.7329 16.5937 20.4955 16.5937 19.275V17.4004V14.9842C16.5516 14.2343 15.6667 14.151 15.6667 14.151C15.9617 13.9011 16.6475 13.9663 16.8887 14.1094C16.993 14.1712 17.3741 14.3994 17.4584 14.9827Z" fill="#EFEFEF"/>
<path d="M11.8016 14C11.165 14 10.6489 14.5161 10.6489 15.1528V19.6693C10.6489 19.8343 10.6489 20.1413 10.0449 20.4454C9.87763 20.5296 9.69338 20.5706 9.48171 20.5706C9.481 20.5706 9.48022 20.5706 9.47957 20.5706C9.25452 20.5703 9.06092 20.5163 8.88745 20.4055C8.42638 20.1109 8.38883 19.9 8.38883 19.6741V15.1528C8.38883 14.5161 7.87272 14 7.23604 14C6.59936 14 6.08325 14.5161 6.08325 15.1528V19.6741C6.08325 20.7861 6.6091 21.6859 7.64618 22.3485C8.19288 22.6977 8.80865 22.8754 9.47651 22.8763H9.48171C10.054 22.8763 10.5924 22.7513 11.082 22.5047C12.2896 21.8966 12.9546 20.8896 12.9546 19.6694V15.1529C12.9544 14.5161 12.4383 14 11.8016 14Z" fill="#FCFCFC"/>
<path d="M12.9583 15.1527V17.4167V19.6667C12.9583 20.8873 12.2617 21.897 11.0536 22.5047C10.5646 22.7514 10.0262 22.8762 9.4535 22.8762H9.44824C9.23774 22.8755 9.03251 22.8583 8.83325 22.8234C9.17238 22.7647 9.49573 22.6584 9.79991 22.5047C11.008 21.897 11.6725 20.89 11.6725 19.6693V15.1527C11.6725 14.7469 11.4833 14.4135 11.1666 14.2083C11.3467 14.0909 11.5419 14 11.7735 14C12.4102 14 12.9583 14.516 12.9583 15.1527Z" fill="#EFEFEF"/>
<path d="M9.13514 2.09985C8.49846 2.09985 7.98235 2.61596 7.98235 3.25264V7.76919C7.98235 7.93415 7.98235 8.24112 7.37835 8.5453C7.21112 8.62949 7.02687 8.67042 6.81521 8.67042C6.81449 8.67042 6.81371 8.67042 6.81306 8.67042C6.58802 8.67016 6.39441 8.61618 6.22095 8.50534C5.75987 8.21078 5.72232 7.99983 5.72232 7.77393V3.25264C5.72232 2.61596 5.20622 2.09985 4.56954 2.09985C3.93285 2.09985 3.41675 2.61596 3.41675 3.25264V7.774C3.41675 8.88599 3.9426 9.78579 4.97968 10.4483C5.52638 10.7976 6.14214 10.9752 6.81001 10.9761H6.81521C7.38751 10.9761 7.9259 10.8511 8.41549 10.6046C9.62305 9.99648 10.2881 8.98948 10.2881 7.76926V3.2527C10.2879 2.61596 9.77182 2.09985 9.13514 2.09985V2.09985Z" fill="#FCFCFC"/>
<path d="M19.8484 9.20306L17.6703 6.33305L19.4816 3.93087C19.8649 3.42249 19.7636 2.69966 19.2552 2.31636C18.7467 1.93285 18.0239 2.0344 17.6407 2.54277L16.2218 4.42449L14.7915 2.53991C14.4066 2.03277 13.6834 1.9337 13.1763 2.3185C12.6691 2.70343 12.57 3.42659 12.9549 3.93373L14.7792 6.33759L12.7041 9.08969C12.3208 9.59806 12.4221 10.3209 12.9305 10.7042C13.1383 10.861 13.382 10.9366 13.6237 10.9366C13.9732 10.9366 14.3185 10.7783 14.5451 10.4778L16.2278 8.24621L18.0118 10.5969C18.2386 10.8957 18.5827 11.0529 18.9309 11.0529C19.1738 11.0529 19.4187 10.9764 19.627 10.8183C20.1342 10.4334 20.2334 9.7102 19.8484 9.20306V9.20306Z" fill="#FCFCFC"/>
<path d="M19.6272 10.8178C19.4187 10.9762 19.1739 11.0527 18.931 11.0527C18.7107 11.0527 18.4916 10.9893 18.3035 10.8666C18.3273 10.8514 18.3503 10.835 18.3735 10.8178C18.8809 10.4331 18.9799 9.70986 18.5952 9.20247L16.597 6.5699C16.4906 6.42964 16.4903 6.23577 16.5962 6.09518L18.2283 3.93033C18.6117 3.42228 18.5101 2.69906 18.002 2.31568C17.9796 2.29918 17.9571 2.28333 17.934 2.26884C18.3287 2.0128 18.8578 2.01547 19.2557 2.31568C19.7637 2.69906 19.8654 3.42221 19.482 3.93033L17.6708 6.33284L19.8489 9.20247C20.2336 9.70986 20.1346 10.4331 19.6272 10.8178V10.8178Z" fill="#EFEFEF"/>
<path d="M10.2876 3.28212V7.79874C10.2876 9.01942 9.62311 10.0264 8.41498 10.6341C7.92603 10.8808 7.38758 11.0055 6.81489 11.0055H6.80962C6.59913 11.0049 6.366 10.9516 6.16675 10.9166C6.50588 10.8579 6.85712 10.7878 7.16129 10.6341C8.36943 10.0264 9.03392 9.01942 9.03392 7.79874V3.28212C9.03392 2.87633 8.82473 2.51998 8.50801 2.31481C8.68816 2.19735 8.90327 2.12939 9.13488 2.12939C9.77156 2.12939 10.2876 2.64537 10.2876 3.28212Z" fill="#EFEFEF"/>
</svg>
