<svg width="40" height="40" viewBox="0 0 40 40" fill="none" xmlns="http://www.w3.org/2000/svg">
<circle cx="20" cy="20" r="20" fill="white"/>
<path d="M21.4151 19.9992L27.7071 13.7072C27.8946 13.5196 27.9999 13.2651 27.9998 12.9998C27.9997 12.7346 27.8942 12.4802 27.7066 12.2927C27.5189 12.1052 27.2645 11.9999 26.9992 12C26.7339 12.0001 26.4796 12.1056 26.2921 12.2932L20.0001 18.5852L13.7081 12.2932C13.5204 12.1056 13.2659 12.0001 13.0006 12.0001C12.7352 12.0001 12.4807 12.1056 12.2931 12.2932C12.1054 12.4808 12 12.7353 12 13.0007C12 13.2661 12.1054 13.5206 12.2931 13.7082L18.5851 19.9992L12.2931 26.2922C12.1054 26.4798 12 26.7343 12 26.9997C12 27.2651 12.1054 27.5196 12.2931 27.7072C12.4807 27.8948 12.7352 28.0003 13.0006 28.0003C13.2659 28.0003 13.5204 27.8948 13.7081 27.7072L20.0001 21.4142L26.2921 27.7062C26.4797 27.8938 26.7342 27.9993 26.9996 27.9993C27.2649 27.9993 27.5194 27.8938 27.7071 27.7062C27.8947 27.5186 28.0001 27.2641 28.0001 26.9987C28.0001 26.7333 27.8947 26.4788 27.7071 26.2912L21.4151 19.9992Z" fill="#222222"/>
</svg>
